<svg width="31" height="30" viewBox="0 0 31 30" fill="none" xmlns="http://www.w3.org/2000/svg">
<path d="M30.5 15.0005C30.5 6.71621 23.7843 0.000488281 15.5 0.000488281C7.21572 0.000488281 0.5 6.71621 0.5 15.0005C0.5 22.4873 5.98525 28.693 13.1562 29.8183V19.3364H9.34766V15.0005H13.1562V11.6958C13.1562 7.93643 15.3957 5.85986 18.822 5.85986C20.4626 5.85986 22.1797 6.15283 22.1797 6.15283V9.84424H20.2883C18.425 9.84424 17.8438 11.0006 17.8438 12.188V15.0005H22.0039L21.3389 19.3364H17.8438V29.8183C25.0147 28.693 30.5 22.4873 30.5 15.0005Z" fill="#1877F2"/>
<path d="M21.3389 19.3364L22.0039 15.0005H17.8438V12.188C17.8438 11.0018 18.425 9.84424 20.2883 9.84424H22.1797V6.15283C22.1797 6.15283 20.4626 5.85986 18.822 5.85986C15.3957 5.85986 13.1562 7.93643 13.1562 11.6958V15.0005H9.34766V19.3364H13.1562V29.8183C14.7093 30.0612 16.2907 30.0612 17.8438 29.8183V19.3364H21.3389Z" fill="white"/>
</svg>
