<svg width="30" height="30" viewBox="0 0 30 30" fill="none" xmlns="http://www.w3.org/2000/svg">
<path d="M29.7717 15.3455C29.7717 14.3259 29.689 13.3007 29.5126 12.2976H15.3642V18.0738H23.4663C23.1301 19.9367 22.0498 21.5847 20.468 22.6319V26.3799H25.3017C28.1402 23.7673 29.7717 19.9092 29.7717 15.3455Z" fill="#4285F4"/>
<path d="M15.3642 30.001C19.4097 30.001 22.8214 28.6727 25.3072 26.3799L20.4735 22.6319C19.1286 23.5469 17.3925 24.065 15.3697 24.065C11.4564 24.065 8.13836 21.4249 6.94784 17.8754H1.95979V21.739C4.50618 26.8043 9.69265 30.001 15.3642 30.001Z" fill="#34A853"/>
<path d="M6.94235 17.8754C6.31402 16.0124 6.31402 13.9951 6.94235 12.1322V8.26853H1.9598C-0.167702 12.507 -0.167717 17.5006 1.95979 21.739L6.94235 17.8754Z" fill="#FBBC04"/>
<path d="M15.3642 5.93708C17.5027 5.90401 19.5696 6.70871 21.1183 8.18584L25.4009 3.90327C22.6892 1.35688 19.09 -0.0430825 15.3642 0.00101083C9.69265 0.00101083 4.50619 3.19779 1.9598 8.26853L6.94235 12.1322C8.12736 8.57718 11.4509 5.93708 15.3642 5.93708Z" fill="#EA4335"/>
</svg>
