<svg width="26" height="26" viewBox="0 0 26 26" fill="none" xmlns="http://www.w3.org/2000/svg">
<path d="M23.6545 0.500488H2.34549C1.85603 0.500488 1.38663 0.694923 1.04053 1.04102C0.694435 1.38711 0.5 1.85652 0.5 2.34597V23.655C0.5 24.1445 0.694435 24.6139 1.04053 24.96C1.38663 25.3061 1.85603 25.5005 2.34549 25.5005H23.6545C24.144 25.5005 24.6134 25.3061 24.9595 24.96C25.3056 24.6139 25.5 24.1445 25.5 23.655V2.34597C25.5 1.85652 25.3056 1.38711 24.9595 1.04102C24.6134 0.694923 24.144 0.500488 23.6545 0.500488ZM7.95139 21.7974H4.19271V9.85813H7.95139V21.7974ZM6.06945 8.20361C5.64309 8.20121 5.227 8.07257 4.87368 7.83391C4.52037 7.59526 4.24567 7.25729 4.08425 6.86266C3.92283 6.46804 3.88192 6.03444 3.9667 5.61659C4.05147 5.19874 4.25813 4.81536 4.56058 4.51484C4.86303 4.21433 5.24772 4.01014 5.66611 3.92805C6.0845 3.84596 6.51783 3.88965 6.91141 4.0536C7.30499 4.21755 7.64119 4.49441 7.87757 4.84925C8.11395 5.20409 8.23992 5.621 8.23958 6.04736C8.24361 6.33281 8.19012 6.61615 8.0823 6.88049C7.97449 7.14483 7.81456 7.38476 7.61205 7.58597C7.40954 7.78719 7.16859 7.94557 6.90357 8.05169C6.63854 8.1578 6.35486 8.20947 6.06945 8.20361ZM21.8056 21.8078H18.0486V15.2852C18.0486 13.3616 17.2309 12.7678 16.1753 12.7678C15.0608 12.7678 13.967 13.6081 13.967 15.3338V21.8078H10.2083V9.86681H13.8229V11.5213H13.8715C14.2344 10.7869 15.5052 9.53174 17.4444 9.53174C19.5417 9.53174 21.8073 10.7765 21.8073 14.4224L21.8056 21.8078Z" fill="#0A66C2"/>
</svg>
