<svg width="31" height="26" viewBox="0 0 31 26" fill="none" xmlns="http://www.w3.org/2000/svg">
<path d="M10.0702 25.1888C21.391 25.1888 27.583 15.8096 27.583 7.67602C27.583 7.40962 27.583 7.14442 27.565 6.88042C28.7696 6.00911 29.8095 4.93027 30.6358 3.69442C29.5126 4.19242 28.3209 4.51886 27.1007 4.66282C28.3856 3.89368 29.3473 2.6838 29.8066 1.25842C28.5985 1.97543 27.2766 2.4807 25.8982 2.75242C24.9702 1.76564 23.7429 1.11222 22.4061 0.893272C21.0693 0.674326 19.6976 0.90206 18.5033 1.54123C17.309 2.18041 16.3586 3.19538 15.7993 4.4291C15.2399 5.66282 15.1028 7.0465 15.409 8.36602C12.962 8.24326 10.568 7.60731 8.38267 6.49942C6.19729 5.39154 4.2693 3.83649 2.72385 1.93522C1.93676 3.29021 1.69569 4.89425 2.04972 6.42074C2.40376 7.94724 3.32628 9.28141 4.62945 10.1516C3.64989 10.1229 2.69166 9.85866 1.83585 9.38122V9.45922C1.83624 10.8803 2.32816 12.2575 3.22819 13.3572C4.12821 14.4569 5.38093 15.2114 6.77385 15.4928C5.8677 15.74 4.91694 15.7761 3.99465 15.5984C4.38812 16.8213 5.15388 17.8907 6.1849 18.6571C7.21591 19.4235 8.46063 19.8485 9.74505 19.8728C8.4689 20.8759 7.00749 21.6176 5.44444 22.0553C3.88139 22.4931 2.24737 22.6184 0.635849 22.424C3.45064 24.2303 6.72575 25.1884 10.0702 25.184" fill="#1DA1F2"/>
</svg>
