<svg width="26" height="15" viewBox="0 0 26 15" fill="none" xmlns="http://www.w3.org/2000/svg">
<path d="M19.0222 1.74698L20.8287 3.43598L14.7067 9.15981L10.5794 5.30092C10.0901 4.84348 9.29977 4.84348 8.81051 5.30092L1.28345 12.3501C0.794189 12.8076 0.794189 13.5465 1.28345 14.004C1.77271 14.4614 2.56305 14.4614 3.05231 14.004L9.68867 7.7875L13.816 11.6464C14.3053 12.1038 15.0956 12.1038 15.5849 11.6464L22.5976 5.10152L24.4041 6.79052C24.793 7.15412 25.4704 6.89608 25.4704 6.38V1.33646C25.483 1.00804 25.207 0.75 24.8557 0.75H19.4739C18.9093 0.75 18.6333 1.38337 19.0222 1.74698Z" fill="#4D4D4D"/>
</svg>
